<mxfile host="app.diagrams.net" modified="2021-01-13T22:16:00.506Z" agent="5.0 (Windows NT 10.0; Win64; x64) AppleWebKit/537.36 (KHTML, like Gecko) Chrome/87.0.4280.141 Safari/537.36" etag="_SJrK1KDEDPLZU5q3QAJ" version="14.1.9" type="github">
  <diagram name="Page-1" id="03018318-947c-dd8e-b7a3-06fadd420f32">
    <mxGraphModel dx="3693" dy="1733" grid="1" gridSize="10" guides="1" tooltips="1" connect="1" arrows="1" fold="1" page="1" pageScale="1" pageWidth="1100" pageHeight="850" background="#ffffff" math="0" shadow="0">
      <root>
        <mxCell id="0" />
        <mxCell id="1" parent="0" />
        <mxCell id="677b7b8949515195-1" value="" style="whiteSpace=wrap;html=1;rounded=0;shadow=0;labelBackgroundColor=none;strokeColor=#000000;strokeWidth=1;fillColor=none;fontFamily=Verdana;fontSize=12;fontColor=#000000;align=center;comic=1;" parent="1" vertex="1">
          <mxGeometry x="20" y="20" width="1060" height="1580" as="geometry" />
        </mxCell>
        <mxCell id="677b7b8949515195-2" value="LOGO" style="whiteSpace=wrap;html=1;rounded=0;shadow=0;labelBackgroundColor=none;strokeWidth=1;fontFamily=Verdana;fontSize=28;align=center;comic=1;" parent="1" vertex="1">
          <mxGeometry x="35" y="35" width="190" height="50" as="geometry" />
        </mxCell>
        <mxCell id="677b7b8949515195-3" value="¿Qué estás buscando?" style="strokeWidth=1;shadow=0;dashed=0;align=center;html=1;shape=mxgraph.mockup.forms.searchBox;strokeColor=#999999;mainText=;strokeColor2=#008cff;fontColor=#666666;fontSize=17;align=left;spacingLeft=3;rounded=0;labelBackgroundColor=none;comic=1;" parent="1" vertex="1">
          <mxGeometry x="252" y="45" width="510" height="30" as="geometry" />
        </mxCell>
        <mxCell id="677b7b8949515195-4" value="Crear mi cuenta&lt;br&gt;" style="text;html=1;points=[];align=left;verticalAlign=top;spacingTop=-4;fontSize=14;fontFamily=Verdana" parent="1" vertex="1">
          <mxGeometry x="780" y="50" width="120" height="20" as="geometry" />
        </mxCell>
        <mxCell id="677b7b8949515195-5" value="Ingresar&lt;br&gt;" style="text;html=1;points=[];align=left;verticalAlign=top;spacingTop=-4;fontSize=14;fontFamily=Verdana" parent="1" vertex="1">
          <mxGeometry x="917.25" y="50" width="60" height="20" as="geometry" />
        </mxCell>
        <mxCell id="677b7b8949515195-7" value="Carrito" style="text;html=1;points=[];align=left;verticalAlign=top;spacingTop=-4;fontSize=14;fontFamily=Verdana" parent="1" vertex="1">
          <mxGeometry x="1000" y="50" width="60" height="20" as="geometry" />
        </mxCell>
        <mxCell id="677b7b8949515195-10" value="" style="whiteSpace=wrap;html=1;rounded=0;shadow=0;labelBackgroundColor=none;strokeWidth=1;fillColor=none;fontFamily=Verdana;fontSize=12;align=center;comic=1;" parent="1" vertex="1">
          <mxGeometry x="20" y="100" width="1060" height="70" as="geometry" />
        </mxCell>
        <mxCell id="677b7b8949515195-11" value="Todo&lt;br&gt;" style="text;html=1;points=[];align=left;verticalAlign=top;spacingTop=-4;fontSize=14;fontFamily=Verdana" parent="1" vertex="1">
          <mxGeometry x="100" y="125" width="60" height="20" as="geometry" />
        </mxCell>
        <mxCell id="677b7b8949515195-12" value="Section 2" style="text;html=1;points=[];align=left;verticalAlign=top;spacingTop=-4;fontSize=14;fontFamily=Verdana" parent="1" vertex="1">
          <mxGeometry x="252" y="125" width="60" height="20" as="geometry" />
        </mxCell>
        <mxCell id="677b7b8949515195-13" value="Section 3" style="text;html=1;points=[];align=left;verticalAlign=top;spacingTop=-4;fontSize=14;fontFamily=Verdana" parent="1" vertex="1">
          <mxGeometry x="433.5" y="125" width="60" height="20" as="geometry" />
        </mxCell>
        <mxCell id="677b7b8949515195-16" value="" style="verticalLabelPosition=bottom;shadow=0;dashed=0;align=center;html=1;verticalAlign=top;strokeWidth=1;shape=mxgraph.mockup.graphics.simpleIcon;strokeColor=#999999;rounded=0;labelBackgroundColor=none;fontFamily=Verdana;fontSize=14;fontColor=#000000;comic=1;" parent="1" vertex="1">
          <mxGeometry x="20" y="170" width="1060" height="255" as="geometry" />
        </mxCell>
        <mxCell id="LxZAGJg_ZRrgHYEx7WZz-49" value="" style="shape=singleArrow;direction=west;whiteSpace=wrap;html=1;arrowWidth=0.3263157894736842;arrowSize=0.375;" parent="1" vertex="1">
          <mxGeometry x="20" y="253.75" width="40" height="47.5" as="geometry" />
        </mxCell>
        <mxCell id="LxZAGJg_ZRrgHYEx7WZz-50" value="" style="shape=singleArrow;direction=east;whiteSpace=wrap;html=1;arrowWidth=0.3263157894736842;arrowSize=0.375;" parent="1" vertex="1">
          <mxGeometry x="1040" y="253.75" width="40" height="47.5" as="geometry" />
        </mxCell>
        <mxCell id="LxZAGJg_ZRrgHYEx7WZz-52" value="" style="verticalLabelPosition=bottom;shadow=0;dashed=0;align=center;html=1;verticalAlign=top;strokeWidth=1;shape=mxgraph.mockup.navigation.pageControl;fillColor=#999999;strokeColor=#ddeeff;" parent="1" vertex="1">
          <mxGeometry x="490" y="345" width="120" height="60" as="geometry" />
        </mxCell>
        <mxCell id="LxZAGJg_ZRrgHYEx7WZz-89" value="" style="verticalLabelPosition=bottom;shadow=0;dashed=0;align=center;html=1;verticalAlign=top;strokeWidth=1;shape=mxgraph.mockup.graphics.simpleIcon;strokeColor=#999999;fillColor=#ffffff;" parent="1" vertex="1">
          <mxGeometry x="50" y="500" width="169" height="160" as="geometry" />
        </mxCell>
        <mxCell id="LxZAGJg_ZRrgHYEx7WZz-103" value="" style="verticalLabelPosition=bottom;shadow=0;dashed=0;align=center;html=1;verticalAlign=top;strokeWidth=1;shape=mxgraph.mockup.graphics.simpleIcon;strokeColor=#999999;fillColor=#ffffff;" parent="1" vertex="1">
          <mxGeometry x="264.5" y="500" width="169" height="160" as="geometry" />
        </mxCell>
        <mxCell id="LxZAGJg_ZRrgHYEx7WZz-104" value="" style="verticalLabelPosition=bottom;shadow=0;dashed=0;align=center;html=1;verticalAlign=top;strokeWidth=1;shape=mxgraph.mockup.graphics.simpleIcon;strokeColor=#999999;fillColor=#ffffff;" parent="1" vertex="1">
          <mxGeometry x="471.5" y="500" width="169" height="160" as="geometry" />
        </mxCell>
        <mxCell id="LxZAGJg_ZRrgHYEx7WZz-105" value="" style="verticalLabelPosition=bottom;shadow=0;dashed=0;align=center;html=1;verticalAlign=top;strokeWidth=1;shape=mxgraph.mockup.graphics.simpleIcon;strokeColor=#999999;fillColor=#ffffff;" parent="1" vertex="1">
          <mxGeometry x="674.5" y="500" width="169" height="160" as="geometry" />
        </mxCell>
        <mxCell id="LxZAGJg_ZRrgHYEx7WZz-106" value="" style="verticalLabelPosition=bottom;shadow=0;dashed=0;align=center;html=1;verticalAlign=top;strokeWidth=1;shape=mxgraph.mockup.graphics.simpleIcon;strokeColor=#999999;fillColor=#ffffff;" parent="1" vertex="1">
          <mxGeometry x="875.5" y="500" width="169" height="160" as="geometry" />
        </mxCell>
        <mxCell id="LxZAGJg_ZRrgHYEx7WZz-109" value="Los más vendidos" style="text;strokeColor=none;fillColor=none;html=1;fontSize=24;fontStyle=1;verticalAlign=middle;align=center;" parent="1" vertex="1">
          <mxGeometry x="42.75" y="425" width="240" height="50" as="geometry" />
        </mxCell>
        <mxCell id="LxZAGJg_ZRrgHYEx7WZz-110" value="Item desc" style="text;strokeColor=none;fillColor=none;html=1;fontSize=24;fontStyle=1;verticalAlign=middle;align=center;" parent="1" vertex="1">
          <mxGeometry x="54.5" y="660" width="100" height="40" as="geometry" />
        </mxCell>
        <mxCell id="LxZAGJg_ZRrgHYEx7WZz-111" value="Item desc" style="text;strokeColor=none;fillColor=none;html=1;fontSize=24;fontStyle=1;verticalAlign=middle;align=center;" parent="1" vertex="1">
          <mxGeometry x="264.5" y="660" width="100" height="40" as="geometry" />
        </mxCell>
        <mxCell id="LxZAGJg_ZRrgHYEx7WZz-112" value="Item desc" style="text;strokeColor=none;fillColor=none;html=1;fontSize=24;fontStyle=1;verticalAlign=middle;align=center;" parent="1" vertex="1">
          <mxGeometry x="468.5" y="660" width="100" height="40" as="geometry" />
        </mxCell>
        <mxCell id="LxZAGJg_ZRrgHYEx7WZz-113" value="Item desc" style="text;strokeColor=none;fillColor=none;html=1;fontSize=24;fontStyle=1;verticalAlign=middle;align=center;" parent="1" vertex="1">
          <mxGeometry x="674.5" y="660" width="100" height="40" as="geometry" />
        </mxCell>
        <mxCell id="LxZAGJg_ZRrgHYEx7WZz-114" value="Item desc" style="text;strokeColor=none;fillColor=none;html=1;fontSize=24;fontStyle=1;verticalAlign=middle;align=center;" parent="1" vertex="1">
          <mxGeometry x="875.5" y="660" width="100" height="40" as="geometry" />
        </mxCell>
        <mxCell id="tgGk5EpyJH_Lw6BRvDHv-2" value="" style="verticalLabelPosition=bottom;shadow=0;dashed=0;align=center;html=1;verticalAlign=top;strokeWidth=1;shape=mxgraph.mockup.graphics.simpleIcon;strokeColor=#999999;fillColor=#ffffff;" vertex="1" parent="1">
          <mxGeometry x="875.5" y="800" width="169" height="160" as="geometry" />
        </mxCell>
        <mxCell id="tgGk5EpyJH_Lw6BRvDHv-3" value="" style="verticalLabelPosition=bottom;shadow=0;dashed=0;align=center;html=1;verticalAlign=top;strokeWidth=1;shape=mxgraph.mockup.graphics.simpleIcon;strokeColor=#999999;fillColor=#ffffff;" vertex="1" parent="1">
          <mxGeometry x="674.5" y="800" width="169" height="160" as="geometry" />
        </mxCell>
        <mxCell id="tgGk5EpyJH_Lw6BRvDHv-4" value="" style="verticalLabelPosition=bottom;shadow=0;dashed=0;align=center;html=1;verticalAlign=top;strokeWidth=1;shape=mxgraph.mockup.graphics.simpleIcon;strokeColor=#999999;fillColor=#ffffff;" vertex="1" parent="1">
          <mxGeometry x="464.5" y="800" width="169" height="160" as="geometry" />
        </mxCell>
        <mxCell id="tgGk5EpyJH_Lw6BRvDHv-6" value="CATEGORIAS" style="text;strokeColor=none;fillColor=none;html=1;fontSize=24;fontStyle=1;verticalAlign=middle;align=center;" vertex="1" parent="1">
          <mxGeometry x="75.75" y="750" width="130" height="50" as="geometry" />
        </mxCell>
        <mxCell id="tgGk5EpyJH_Lw6BRvDHv-7" value="" style="verticalLabelPosition=bottom;shadow=0;dashed=0;align=center;html=1;verticalAlign=top;strokeWidth=1;shape=mxgraph.mockup.graphics.simpleIcon;strokeColor=#999999;fillColor=#ffffff;" vertex="1" parent="1">
          <mxGeometry x="50" y="800" width="169" height="160" as="geometry" />
        </mxCell>
        <mxCell id="tgGk5EpyJH_Lw6BRvDHv-8" value="Item desc" style="text;strokeColor=none;fillColor=none;html=1;fontSize=24;fontStyle=1;verticalAlign=middle;align=center;" vertex="1" parent="1">
          <mxGeometry x="54.5" y="960" width="100" height="40" as="geometry" />
        </mxCell>
        <mxCell id="tgGk5EpyJH_Lw6BRvDHv-9" value="" style="verticalLabelPosition=bottom;shadow=0;dashed=0;align=center;html=1;verticalAlign=top;strokeWidth=1;shape=mxgraph.mockup.graphics.simpleIcon;strokeColor=#999999;fillColor=#ffffff;" vertex="1" parent="1">
          <mxGeometry x="256.5" y="800" width="169" height="160" as="geometry" />
        </mxCell>
        <mxCell id="tgGk5EpyJH_Lw6BRvDHv-10" value="Item desc" style="text;strokeColor=none;fillColor=none;html=1;fontSize=24;fontStyle=1;verticalAlign=middle;align=center;" vertex="1" parent="1">
          <mxGeometry x="256.5" y="960" width="100" height="40" as="geometry" />
        </mxCell>
        <mxCell id="tgGk5EpyJH_Lw6BRvDHv-11" value="Item desc" style="text;strokeColor=none;fillColor=none;html=1;fontSize=24;fontStyle=1;verticalAlign=middle;align=center;" vertex="1" parent="1">
          <mxGeometry x="461.5" y="960" width="100" height="40" as="geometry" />
        </mxCell>
        <mxCell id="tgGk5EpyJH_Lw6BRvDHv-12" value="Item desc" style="text;strokeColor=none;fillColor=none;html=1;fontSize=24;fontStyle=1;verticalAlign=middle;align=center;" vertex="1" parent="1">
          <mxGeometry x="674.5" y="960" width="100" height="40" as="geometry" />
        </mxCell>
        <mxCell id="tgGk5EpyJH_Lw6BRvDHv-13" value="Item desc" style="text;strokeColor=none;fillColor=none;html=1;fontSize=24;fontStyle=1;verticalAlign=middle;align=center;" vertex="1" parent="1">
          <mxGeometry x="875.5" y="960" width="100" height="40" as="geometry" />
        </mxCell>
        <mxCell id="tgGk5EpyJH_Lw6BRvDHv-14" value="" style="verticalLabelPosition=bottom;shadow=0;dashed=0;align=center;html=1;verticalAlign=top;strokeWidth=1;shape=mxgraph.mockup.graphics.simpleIcon;strokeColor=#999999;fillColor=#ffffff;" vertex="1" parent="1">
          <mxGeometry x="464.5" y="800" width="169" height="160" as="geometry" />
        </mxCell>
        <mxCell id="tgGk5EpyJH_Lw6BRvDHv-15" value="Item desc" style="text;strokeColor=none;fillColor=none;html=1;fontSize=24;fontStyle=1;verticalAlign=middle;align=center;" vertex="1" parent="1">
          <mxGeometry x="461.5" y="960" width="100" height="40" as="geometry" />
        </mxCell>
        <mxCell id="tgGk5EpyJH_Lw6BRvDHv-16" value="" style="verticalLabelPosition=bottom;shadow=0;dashed=0;align=center;html=1;verticalAlign=top;strokeWidth=1;shape=mxgraph.mockup.graphics.simpleIcon;strokeColor=#999999;fillColor=#ffffff;" vertex="1" parent="1">
          <mxGeometry x="256.5" y="800" width="169" height="160" as="geometry" />
        </mxCell>
        <mxCell id="tgGk5EpyJH_Lw6BRvDHv-17" value="Item desc" style="text;strokeColor=none;fillColor=none;html=1;fontSize=24;fontStyle=1;verticalAlign=middle;align=center;" vertex="1" parent="1">
          <mxGeometry x="256.5" y="960" width="100" height="40" as="geometry" />
        </mxCell>
        <mxCell id="tgGk5EpyJH_Lw6BRvDHv-18" value="" style="verticalLabelPosition=bottom;shadow=0;dashed=0;align=center;html=1;verticalAlign=top;strokeWidth=1;shape=mxgraph.mockup.graphics.simpleIcon;strokeColor=#999999;fillColor=#ffffff;" vertex="1" parent="1">
          <mxGeometry x="50" y="800" width="169" height="160" as="geometry" />
        </mxCell>
        <mxCell id="tgGk5EpyJH_Lw6BRvDHv-19" value="Item desc" style="text;strokeColor=none;fillColor=none;html=1;fontSize=24;fontStyle=1;verticalAlign=middle;align=center;" vertex="1" parent="1">
          <mxGeometry x="54.5" y="960" width="100" height="40" as="geometry" />
        </mxCell>
        <mxCell id="tgGk5EpyJH_Lw6BRvDHv-36" value="" style="verticalLabelPosition=bottom;shadow=0;dashed=0;align=center;html=1;verticalAlign=top;strokeWidth=1;shape=mxgraph.mockup.graphics.simpleIcon;strokeColor=#999999;fillColor=#ffffff;" vertex="1" parent="1">
          <mxGeometry x="882.5" y="1100" width="169" height="160" as="geometry" />
        </mxCell>
        <mxCell id="tgGk5EpyJH_Lw6BRvDHv-37" value="" style="verticalLabelPosition=bottom;shadow=0;dashed=0;align=center;html=1;verticalAlign=top;strokeWidth=1;shape=mxgraph.mockup.graphics.simpleIcon;strokeColor=#999999;fillColor=#ffffff;" vertex="1" parent="1">
          <mxGeometry x="672.5" y="1100" width="169" height="160" as="geometry" />
        </mxCell>
        <mxCell id="tgGk5EpyJH_Lw6BRvDHv-38" value="" style="verticalLabelPosition=bottom;shadow=0;dashed=0;align=center;html=1;verticalAlign=top;strokeWidth=1;shape=mxgraph.mockup.graphics.simpleIcon;strokeColor=#999999;fillColor=#ffffff;" vertex="1" parent="1">
          <mxGeometry x="462.5" y="1100" width="169" height="160" as="geometry" />
        </mxCell>
        <mxCell id="tgGk5EpyJH_Lw6BRvDHv-39" value="xxxxxxxxxx" style="text;strokeColor=none;fillColor=none;html=1;fontSize=24;fontStyle=1;verticalAlign=middle;align=center;" vertex="1" parent="1">
          <mxGeometry x="50" y="1030" width="130" height="50" as="geometry" />
        </mxCell>
        <mxCell id="tgGk5EpyJH_Lw6BRvDHv-40" value="" style="verticalLabelPosition=bottom;shadow=0;dashed=0;align=center;html=1;verticalAlign=top;strokeWidth=1;shape=mxgraph.mockup.graphics.simpleIcon;strokeColor=#999999;fillColor=#ffffff;" vertex="1" parent="1">
          <mxGeometry x="48" y="1100" width="169" height="160" as="geometry" />
        </mxCell>
        <mxCell id="tgGk5EpyJH_Lw6BRvDHv-41" value="Item desc" style="text;strokeColor=none;fillColor=none;html=1;fontSize=24;fontStyle=1;verticalAlign=middle;align=center;" vertex="1" parent="1">
          <mxGeometry x="52.5" y="1260" width="100" height="40" as="geometry" />
        </mxCell>
        <mxCell id="tgGk5EpyJH_Lw6BRvDHv-42" value="" style="verticalLabelPosition=bottom;shadow=0;dashed=0;align=center;html=1;verticalAlign=top;strokeWidth=1;shape=mxgraph.mockup.graphics.simpleIcon;strokeColor=#999999;fillColor=#ffffff;" vertex="1" parent="1">
          <mxGeometry x="254.5" y="1100" width="169" height="160" as="geometry" />
        </mxCell>
        <mxCell id="tgGk5EpyJH_Lw6BRvDHv-43" value="Item desc" style="text;strokeColor=none;fillColor=none;html=1;fontSize=24;fontStyle=1;verticalAlign=middle;align=center;" vertex="1" parent="1">
          <mxGeometry x="254.5" y="1260" width="100" height="40" as="geometry" />
        </mxCell>
        <mxCell id="tgGk5EpyJH_Lw6BRvDHv-44" value="Item desc" style="text;strokeColor=none;fillColor=none;html=1;fontSize=24;fontStyle=1;verticalAlign=middle;align=center;" vertex="1" parent="1">
          <mxGeometry x="459.5" y="1260" width="100" height="40" as="geometry" />
        </mxCell>
        <mxCell id="tgGk5EpyJH_Lw6BRvDHv-45" value="Item desc" style="text;strokeColor=none;fillColor=none;html=1;fontSize=24;fontStyle=1;verticalAlign=middle;align=center;" vertex="1" parent="1">
          <mxGeometry x="672.5" y="1260" width="100" height="40" as="geometry" />
        </mxCell>
        <mxCell id="tgGk5EpyJH_Lw6BRvDHv-46" value="Item desc" style="text;strokeColor=none;fillColor=none;html=1;fontSize=24;fontStyle=1;verticalAlign=middle;align=center;" vertex="1" parent="1">
          <mxGeometry x="882.5" y="1260" width="100" height="40" as="geometry" />
        </mxCell>
        <mxCell id="tgGk5EpyJH_Lw6BRvDHv-47" value="" style="verticalLabelPosition=bottom;shadow=0;dashed=0;align=center;html=1;verticalAlign=top;strokeWidth=1;shape=mxgraph.mockup.graphics.simpleIcon;strokeColor=#999999;fillColor=#ffffff;" vertex="1" parent="1">
          <mxGeometry x="462.5" y="1100" width="169" height="160" as="geometry" />
        </mxCell>
        <mxCell id="tgGk5EpyJH_Lw6BRvDHv-48" value="Item desc" style="text;strokeColor=none;fillColor=none;html=1;fontSize=24;fontStyle=1;verticalAlign=middle;align=center;" vertex="1" parent="1">
          <mxGeometry x="459.5" y="1260" width="100" height="40" as="geometry" />
        </mxCell>
        <mxCell id="tgGk5EpyJH_Lw6BRvDHv-49" value="" style="verticalLabelPosition=bottom;shadow=0;dashed=0;align=center;html=1;verticalAlign=top;strokeWidth=1;shape=mxgraph.mockup.graphics.simpleIcon;strokeColor=#999999;fillColor=#ffffff;" vertex="1" parent="1">
          <mxGeometry x="254.5" y="1100" width="169" height="160" as="geometry" />
        </mxCell>
        <mxCell id="tgGk5EpyJH_Lw6BRvDHv-50" value="Item desc" style="text;strokeColor=none;fillColor=none;html=1;fontSize=24;fontStyle=1;verticalAlign=middle;align=center;" vertex="1" parent="1">
          <mxGeometry x="254.5" y="1260" width="100" height="40" as="geometry" />
        </mxCell>
        <mxCell id="tgGk5EpyJH_Lw6BRvDHv-51" value="" style="verticalLabelPosition=bottom;shadow=0;dashed=0;align=center;html=1;verticalAlign=top;strokeWidth=1;shape=mxgraph.mockup.graphics.simpleIcon;strokeColor=#999999;fillColor=#ffffff;" vertex="1" parent="1">
          <mxGeometry x="48" y="1100" width="169" height="160" as="geometry" />
        </mxCell>
        <mxCell id="tgGk5EpyJH_Lw6BRvDHv-52" value="Item desc" style="text;strokeColor=none;fillColor=none;html=1;fontSize=24;fontStyle=1;verticalAlign=middle;align=center;" vertex="1" parent="1">
          <mxGeometry x="52.5" y="1260" width="100" height="40" as="geometry" />
        </mxCell>
        <mxCell id="tgGk5EpyJH_Lw6BRvDHv-57" value="" style="whiteSpace=wrap;html=1;rounded=0;shadow=0;labelBackgroundColor=none;strokeWidth=1;fillColor=none;fontFamily=Verdana;fontSize=12;align=center;comic=1;" vertex="1" parent="1">
          <mxGeometry x="20" y="1420" width="1060" height="70" as="geometry" />
        </mxCell>
        <mxCell id="tgGk5EpyJH_Lw6BRvDHv-58" value="Puntos de venta" style="text;html=1;points=[];align=left;verticalAlign=top;spacingTop=-4;fontSize=14;fontFamily=Verdana" vertex="1" parent="1">
          <mxGeometry x="224.5" y="1445" width="130" height="20" as="geometry" />
        </mxCell>
        <mxCell id="tgGk5EpyJH_Lw6BRvDHv-59" value="¿Necesitas ayuda?&amp;nbsp; Escribinos" style="text;html=1;points=[];align=left;verticalAlign=top;spacingTop=-4;fontSize=14;fontFamily=Verdana" vertex="1" parent="1">
          <mxGeometry x="441.25" y="1445" width="211.5" height="20" as="geometry" />
        </mxCell>
        <mxCell id="tgGk5EpyJH_Lw6BRvDHv-60" value="Quienes somos" style="text;html=1;points=[];align=left;verticalAlign=top;spacingTop=-4;fontSize=14;fontFamily=Verdana" vertex="1" parent="1">
          <mxGeometry x="795.5" y="1445" width="104.5" height="20" as="geometry" />
        </mxCell>
      </root>
    </mxGraphModel>
  </diagram>
</mxfile>
